<svg width="100" height="100" viewBox="0 0 100 100" fill="none" xmlns="http://www.w3.org/2000/svg">
<path d="M46.094 45.3127H53.9065V65.6252H46.094V45.3127ZM32.0316 54.6877H39.844V65.6252H32.0316V54.6877ZM60.1564 34.3752H67.9689V65.6252H60.1564V34.3752ZM12.5029 83.079C-4.16701 64.2165 -4.16826 35.7852 12.5029 16.9227L25.8028 30.2227C16.3991 41.699 16.3991 58.304 25.8028 69.779L12.5029 83.079ZM83.0788 87.4977C64.2164 104.168 35.7853 104.168 16.9229 87.4977L30.2216 74.1977C41.6978 83.6002 58.3027 83.6002 69.7776 74.1977L83.0788 87.4977ZM87.4976 16.9227C104.167 35.7852 104.167 64.2165 87.4976 83.079L74.1989 69.7777C83.6001 58.3027 83.6001 41.699 74.1989 30.2215L87.4976 16.9227ZM16.9229 12.5027C35.784 -4.16726 64.2164 -4.16726 83.0788 12.5027L69.7776 25.8027C58.3027 16.4002 41.6978 16.4002 30.2216 25.8027L16.9229 12.5027Z" fill="#635BFF"/>
</svg>
