<svg width="20" height="16" viewBox="0 0 20 16" fill="none" xmlns="http://www.w3.org/2000/svg">
<path d="M7 7.10531V14.9803M7 7.10531H2.59961C2.03956 7.10531 1.75981 7.10531 1.5459 7.20068C1.35774 7.28457 1.20487 7.41833 1.10899 7.58297C1 7.77014 1 8.01534 1 8.50539V14.9803H7M7 7.10531V2.38042C7 1.89038 7 1.64518 7.10899 1.458C7.20487 1.29336 7.35774 1.1596 7.5459 1.07572C7.75981 0.980347 8.03956 0.980347 8.59961 0.980347H11.3996C11.9597 0.980347 12.2403 0.980347 12.4542 1.07572C12.6423 1.1596 12.7948 1.29336 12.8906 1.458C12.9996 1.64518 13 1.89038 13 2.38042V4.48033M7 14.9803H13M13 14.9803L19 14.9803V5.8804C19 5.39036 18.9996 5.14516 18.8906 4.95798C18.7948 4.79334 18.6429 4.65958 18.4548 4.57569C18.2409 4.48033 17.9601 4.48033 17.4 4.48033H13M13 14.9803V4.48033" stroke="#9C9EA3" stroke-linecap="round" stroke-linejoin="round"/>
</svg>
