<svg width="20" height="19" viewBox="0 0 20 19" fill="none" xmlns="http://www.w3.org/2000/svg">
<path d="M1 9.5558H6M1 9.5558C1 14.281 5.02944 18.1116 10 18.1116M1 9.5558C1 4.83056 5.02944 1 10 1M6 9.5558H14M6 9.5558C6 14.281 7.79086 18.1116 10 18.1116M6 9.5558C6 4.83056 7.79086 1 10 1M14 9.5558H19M14 9.5558C14 4.83056 12.2091 1 10 1M14 9.5558C14 14.281 12.2091 18.1116 10 18.1116M19 9.5558C19 4.83056 14.9706 1 10 1M19 9.5558C19 14.281 14.9706 18.1116 10 18.1116" stroke="#9C9EA3" stroke-linecap="round" stroke-linejoin="round"/>
</svg>
