<svg width="16" height="19" viewBox="0 0 16 19" fill="none" xmlns="http://www.w3.org/2000/svg">
<path d="M8 15.3437V9.63979M8 9.63979L5 11.5411M8 9.63979L11 11.5411M9 1.08481C8.90451 1.08398 8.79728 1.08398 8.67471 1.08398H4.2002C3.08009 1.08398 2.51962 1.08398 2.0918 1.29121C1.71547 1.4735 1.40973 1.76414 1.21799 2.1219C1 2.5286 1 3.06141 1 4.12623V15.1537C1 16.2185 1 16.7507 1.21799 17.1574C1.40973 17.5151 1.71547 17.8063 2.0918 17.9886C2.51921 18.1956 3.079 18.1956 4.19694 18.1956L11.8031 18.1956C12.921 18.1956 13.48 18.1956 13.9074 17.9886C14.2837 17.8063 14.5905 17.5151 14.7822 17.1574C15 16.7511 15 16.2197 15 15.1569V7.09746C15 6.9808 15 6.87874 14.9991 6.78785M9 1.08481C9.28564 1.08728 9.46634 1.09715 9.63884 1.13652C9.84291 1.18309 10.0379 1.26011 10.2168 1.36435C10.4186 1.48189 10.5918 1.64659 10.9375 1.97521L14.063 4.94644C14.4089 5.27527 14.5809 5.43923 14.7046 5.6311C14.8142 5.80121 14.8953 5.9867 14.9443 6.1807C14.9857 6.34462 14.9963 6.51645 14.9991 6.78785M9 1.08481V3.74579C9 4.81061 9 5.34265 9.21799 5.74936C9.40973 6.10711 9.71547 6.39854 10.0918 6.58083C10.5192 6.78785 11.079 6.78785 12.1969 6.78785H14.9991M14.9991 6.78785H15.0002" stroke="#9C9EA3" stroke-linecap="round" stroke-linejoin="round"/>
</svg>
