<svg width="20" height="16" viewBox="0 0 20 16" fill="none" xmlns="http://www.w3.org/2000/svg">
<path d="M1 2.73035V12.1803C1 13.1604 1 13.6501 1.21799 14.0245C1.40973 14.3538 1.71547 14.622 2.0918 14.7898C2.5192 14.9803 3.07899 14.9803 4.19691 14.9803H15.8031C16.921 14.9803 17.48 14.9803 17.9074 14.7898C18.2837 14.622 18.5905 14.3539 18.7822 14.0247C19.0002 13.6503 19.0002 13.1603 19.0002 12.1802L19.0002 5.53015C19.0002 4.55006 19.0002 4.06001 18.7822 3.68567C18.5905 3.35639 18.2839 3.08886 17.9076 2.92109C17.4798 2.73035 16.9201 2.73035 15.8 2.73035H10M1 2.73035H10M1 2.73035C1 1.76385 1.89543 0.980347 3 0.980347H6.67452C7.1637 0.980347 7.40886 0.980347 7.63904 1.0287C7.84311 1.07157 8.03785 1.14245 8.2168 1.2384C8.41857 1.34659 8.59181 1.49818 8.9375 1.80066L10 2.73035" stroke="#9C9EA3" stroke-linecap="round" stroke-linejoin="round"/>
</svg>
