<svg width="18" height="18" viewBox="0 0 18 18" fill="none" xmlns="http://www.w3.org/2000/svg">
<path d="M6.46354 6.37912C6.61536 5.9113 6.89347 5.49498 7.26736 5.17544C7.64125 4.85591 8.09671 4.64593 8.58247 4.56886C9.06822 4.49179 9.56553 4.55048 10.02 4.73859C10.4744 4.92671 10.868 5.23701 11.1571 5.63486C11.4463 6.03271 11.6195 6.50262 11.6581 6.99293C11.6968 7.48325 11.599 7.97483 11.3757 8.41307C11.1525 8.85132 10.8128 9.21901 10.3934 9.47601C9.97408 9.73301 9.49183 9.86903 9 9.86903V10.7583M9 16.9803C4.58172 16.9803 1 13.3986 1 8.98035C1 4.56207 4.58172 0.980347 9 0.980347C13.4183 0.980347 17 4.56207 17 8.98035C17 13.3986 13.4183 16.9803 9 16.9803ZM9.04427 13.4248V13.5137L8.95573 13.5139V13.4248H9.04427Z" stroke="#635BFF" stroke-linecap="round" stroke-linejoin="round"/>
</svg>
